<svg width="1440" height="820" viewBox="0 0 1440 820" fill="none" xmlns="http://www.w3.org/2000/svg">
<mask id="path-1-inside-1_601_79" fill="white">
<rect width="1440" height="820" rx="10"/>
</mask>
<rect width="1440" height="820" rx="10" stroke="white" stroke-width="120" mask="url(#path-1-inside-1_601_79)"/>
<g clip-path="url(#clip0_601_79)">
<path d="M257.612 344.552C262.448 337.388 269.075 331.567 277.493 327.09C286.09 322.612 295.851 320.373 306.776 320.373C319.493 320.373 330.955 323.507 341.164 329.776C351.552 336.045 359.701 345 365.612 356.642C371.701 368.104 374.746 381.448 374.746 396.672C374.746 411.895 371.701 425.418 365.612 437.239C359.701 448.881 351.552 457.925 341.164 464.373C330.955 470.821 319.493 474.045 306.776 474.045C295.672 474.045 285.91 471.895 277.493 467.597C269.254 463.119 262.627 457.388 257.612 450.403V471.627H220V272.821H257.612V344.552ZM336.328 396.672C336.328 387.716 334.448 380.015 330.687 373.567C327.104 366.94 322.269 361.925 316.179 358.522C310.301 355.128 303.623 353.366 296.836 353.418C290.03 353.418 283.582 355.209 277.493 358.791C271.582 362.194 266.746 367.209 262.985 373.836C259.403 380.463 257.612 388.254 257.612 397.209C257.612 406.164 259.403 413.955 262.985 420.582C266.746 427.209 271.582 432.313 277.493 435.895C283.582 439.298 290.03 441 296.836 441C303.821 441 310.269 439.209 316.179 435.627C322.269 432.045 327.104 426.94 330.687 420.313C334.448 413.687 336.328 405.806 336.328 396.672ZM421.149 305.06C414.522 305.06 408.97 303 404.493 298.881C400.194 294.582 398.045 289.299 398.045 283.03C398.045 276.761 400.194 271.567 404.493 267.448C408.97 263.149 414.522 261 421.149 261C427.776 261 433.239 263.149 437.537 267.448C442.015 271.567 444.254 276.761 444.254 283.03C444.254 289.299 442.015 294.582 437.537 298.881C433.239 303 427.776 305.06 421.149 305.06ZM439.687 322.791V471.627H402.075V322.791H439.687ZM564.97 471.627L514.463 408.224V471.627H476.851V272.821H514.463V385.925L564.433 322.791H613.328L547.776 397.478L613.866 471.627H564.97ZM616.604 397.209C616.604 381.806 619.739 368.373 626.007 356.91C632.276 345.269 640.963 336.313 652.067 330.045C663.172 323.597 675.888 320.373 690.216 320.373C708.664 320.373 723.888 325.03 735.888 334.343C748.067 343.478 756.216 356.373 760.336 373.03H719.776C717.627 366.582 713.955 361.567 708.761 357.985C703.746 354.224 697.478 352.343 689.955 352.343C679.209 352.343 670.701 356.284 664.433 364.164C658.164 371.866 655.03 382.881 655.03 397.209C655.03 411.358 658.164 422.373 664.433 430.254C670.701 437.955 679.209 441.806 689.955 441.806C705.179 441.806 715.119 435 719.776 421.388H760.343C756.224 437.507 748.075 450.313 735.895 459.806C723.716 469.298 708.492 474.045 690.224 474.045C675.895 474.045 663.179 470.91 652.075 464.642C641.058 458.285 632.034 448.981 626.015 437.776C619.746 426.134 616.612 412.612 616.612 397.209H616.604ZM818.045 345.896C822.657 338.235 829.125 331.86 836.851 327.358C844.731 322.881 853.687 320.642 863.716 320.642V360.134H853.776C841.955 360.134 833 362.91 826.91 368.463C821 374.015 818.045 383.687 818.045 397.478V471.627H780.433V322.791H818.045V345.896ZM979.045 450.403C974.925 457.209 968.209 462.94 958.896 467.597C949.582 472.075 939.552 474.313 928.806 474.313C919.493 474.313 911.075 472.433 903.552 468.672C896.03 464.91 890.119 459.716 885.821 453.09C881.522 446.463 879.373 438.851 879.373 430.254C879.373 416.463 884.478 405.179 894.687 396.403C905.075 387.627 920.567 383.239 941.164 383.239H979.045C978.687 373.746 975.91 366.224 970.716 360.672C965.701 354.94 958.716 352.075 949.761 352.075C941.881 352.075 935.343 354.224 930.149 358.522C924.955 362.642 921.642 368.463 920.209 375.985H882.597C884.388 365.239 888.239 355.657 894.149 347.239C900.186 338.687 908.33 331.838 917.791 327.358C927.642 322.522 938.657 320.104 950.836 320.104C963.373 320.104 974.657 322.701 984.687 327.896C994.649 332.857 1002.96 340.604 1008.6 350.194C1014.33 359.866 1017.19 371.239 1017.19 384.313V471.627H979.045V450.403ZM939.821 443.955C946.09 443.955 952.179 442.612 958.089 439.925C964.179 437.239 969.194 433.209 973.134 427.836C977.075 422.463 979.045 416.104 979.045 408.761V407.687H943.313C934.716 407.687 928.269 409.388 923.97 412.791C919.851 416.194 917.791 420.672 917.791 426.224C917.791 431.597 919.672 435.895 923.433 439.119C927.373 442.343 932.836 443.955 939.821 443.955ZM1096.51 353.687V471.627H1058.37V353.687H1041.44V322.791H1058.37V315.269C1058.37 297 1063.56 283.567 1073.95 274.97C1084.34 266.373 1100.01 262.343 1120.96 262.881V294.582C1111.83 294.403 1105.47 295.925 1101.89 299.149C1098.31 302.373 1096.51 308.194 1096.51 316.612V322.791H1145.4V285.985H1183.28V322.791H1216.59V353.687H1183.28V425.687C1183.28 430.701 1184.44 434.373 1186.77 436.701C1189.28 438.851 1193.4 439.925 1199.13 439.925H1216.59V471.627H1192.95C1161.25 471.627 1145.4 456.224 1145.4 425.418V353.687H1096.51Z" fill="white"/>
<path d="M667.761 529.656H220V559.507H667.761V529.656Z" fill="#EE2211"/>
</g>
<defs>
<clipPath id="clip0_601_79">
<rect width="1000" height="298.507" fill="white" transform="translate(220 261)"/>
</clipPath>
</defs>
</svg>
